<svg width="22" height="21" viewBox="0 0 22 21" fill="none" xmlns="http://www.w3.org/2000/svg">
<path d="M16.9461 14.3369C18.402 15.0683 19.6503 16.242 20.5614 17.7096C20.7418 18.0003 20.832 18.1456 20.8632 18.3468C20.9266 18.7558 20.6469 19.2585 20.2661 19.4204C20.0786 19.5 19.8678 19.5 19.4461 19.5M14.9461 10.0322C16.4278 9.29589 17.4461 7.76686 17.4461 6C17.4461 4.23314 16.4278 2.70411 14.9461 1.96776M12.9461 6C12.9461 8.48528 10.9314 10.5 8.44613 10.5C5.96084 10.5 3.94613 8.48528 3.94613 6C3.94613 3.51472 5.96084 1.5 8.44613 1.5C10.9314 1.5 12.9461 3.51472 12.9461 6ZM1.50536 17.4383C3.09966 15.0446 5.6155 13.5 8.44613 13.5C11.2768 13.5 13.7926 15.0446 15.3869 17.4383C15.7362 17.9628 15.9108 18.225 15.8907 18.5599C15.875 18.8207 15.7041 19.14 15.4957 19.2976C15.228 19.5 14.86 19.5 14.1238 19.5H2.76848C2.0323 19.5 1.6642 19.5 1.39656 19.2976C1.18817 19.14 1.01721 18.8207 1.00156 18.5599C0.981454 18.225 1.15609 17.9628 1.50536 17.4383Z" stroke="currentColor" stroke-width="2" stroke-linecap="round" stroke-linejoin="round"/>
</svg>
