<svg width="27" height="27" viewBox="0 0 27 27" fill="none" xmlns="http://www.w3.org/2000/svg">
<path d="M12.875 4.75H13.418C17.2271 4.75 19.1316 4.75 19.8545 5.43411C20.4795 6.02546 20.7564 6.8966 20.5877 7.74026C20.3925 8.71627 18.8376 9.81607 15.7279 12.0157L10.6471 15.6093C7.53738 17.8089 5.98248 18.9087 5.78729 19.8847C5.61857 20.7284 5.89552 21.5995 6.52045 22.1909C7.24342 22.875 9.14795 22.875 12.957 22.875H14.125M8.5 4.75C8.5 6.82107 6.82107 8.5 4.75 8.5C2.67893 8.5 1 6.82107 1 4.75C1 2.67893 2.67893 1 4.75 1C6.82107 1 8.5 2.67893 8.5 4.75ZM26 22.25C26 24.3211 24.3211 26 22.25 26C20.1789 26 18.5 24.3211 18.5 22.25C18.5 20.1789 20.1789 18.5 22.25 18.5C24.3211 18.5 26 20.1789 26 22.25Z" stroke="#454545" stroke-linecap="round" stroke-linejoin="round"/>
</svg>
